<svg width="64" height="64" viewBox="0 0 64 64" fill="none" xmlns="http://www.w3.org/2000/svg">
<path opacity="0.12" fill-rule="evenodd" clip-rule="evenodd" d="M43.4592 31.3334C42.3336 25.2855 37.1876 20.8624 30.7084 22.0646C24.2291 23.2668 20.0397 29.1124 20.9156 35.4642C21.7915 41.816 27.595 58.8109 27.595 58.8109C27.595 58.8109 45.2148 55.3394 51.1536 52.9221C57.0923 50.5047 60.1572 43.9578 57.8616 37.7415C55.566 31.5251 49.2596 29.2842 43.4592 31.3334Z" fill="#E923B1"/>
<path d="M41.4548 26.468C42.4519 24.6962 43.2834 23.0975 43.7962 21.8807C46.2862 15.9721 43.824 9.17554 37.8052 6.40316C31.7863 3.63077 25.7424 6.50549 23.0899 12.056C18.0175 8.57537 11.2511 9.08654 7.51969 14.5181C3.78824 19.9497 4.95934 27.0456 10.0701 30.9176C12.3896 32.6749 16.977 35.2647 21.2959 37.5693M43.4592 31.3334C42.3336 25.2855 37.1876 20.8624 30.7084 22.0646C24.2291 23.2668 20.0397 29.1124 20.9156 35.4642C21.6193 40.5674 25.5038 52.5408 27.0037 57.0508C27.2084 57.6662 27.3108 57.974 27.5134 58.1885C27.6899 58.3755 27.9246 58.511 28.1748 58.5704C28.4619 58.6386 28.7796 58.5733 29.4149 58.4429C34.0707 57.4869 46.3822 54.8642 51.1536 52.9221C57.0923 50.5047 60.1572 43.9578 57.8616 37.7415C55.566 31.5251 49.2596 29.2842 43.4592 31.3334Z" stroke="#E923B1" stroke-width="3" stroke-linecap="round" stroke-linejoin="round"/>
</svg>
