<svg width="64" height="64" viewBox="0 0 64 64" fill="none" xmlns="http://www.w3.org/2000/svg">
<path opacity="0.12" d="M16 9.18486C16 8.08127 16 7.52947 16.1608 7.08762C16.4304 6.34691 17.0139 5.76342 17.7546 5.49383C18.1965 5.33301 18.7483 5.33301 19.8519 5.33301H44.1481C45.2517 5.33301 45.8035 5.33301 46.2454 5.49383C46.9861 5.76342 47.5696 6.34691 47.8392 7.08762C48 7.52947 48 8.08127 48 9.18486V23.9997C48 32.8362 40.8366 39.9997 32 39.9997C23.1634 39.9997 16 32.8362 16 23.9997V9.18486Z" fill="#2A67F4"/>
<path d="M32 39.9997C23.1634 39.9997 16 32.8362 16 23.9997V9.18486C16 8.08127 16 7.52947 16.1608 7.08762C16.4304 6.34691 17.0139 5.76342 17.7546 5.49383C18.1965 5.33301 18.7483 5.33301 19.8518 5.33301H44.1481C45.2517 5.33301 45.8035 5.33301 46.2454 5.49383C46.9861 5.76342 47.5696 6.34691 47.8392 7.08762C48 7.52947 48 8.08127 48 9.18486V23.9997C48 32.8362 40.8366 39.9997 32 39.9997ZM32 39.9997V47.9997M48 10.6663H54.6667C55.9092 10.6663 56.5304 10.6663 57.0205 10.8693C57.6739 11.14 58.193 11.6591 58.4637 12.3125C58.6667 12.8026 58.6667 13.4238 58.6667 14.6663V15.9997C58.6667 18.4796 58.6667 19.7196 58.3941 20.7369C57.6543 23.4976 55.498 25.654 52.7372 26.3937C51.7199 26.6663 50.4799 26.6663 48 26.6663M16 10.6663H9.33333C8.09082 10.6663 7.46956 10.6663 6.97951 10.8693C6.3261 11.14 5.80697 11.6591 5.53632 12.3125C5.33333 12.8026 5.33333 13.4238 5.33333 14.6663V15.9997C5.33333 18.4796 5.33333 19.7196 5.60592 20.7369C6.34566 23.4976 8.50204 25.654 11.2628 26.3937C12.2801 26.6663 13.5201 26.6663 16 26.6663M19.8518 58.6663H44.1481C44.8027 58.6663 45.3333 58.1357 45.3333 57.4812C45.3333 52.2447 41.0883 47.9997 35.8518 47.9997H28.1481C22.9117 47.9997 18.6667 52.2447 18.6667 57.4812C18.6667 58.1357 19.1973 58.6663 19.8518 58.6663Z" stroke="#2A67F4" stroke-width="3" stroke-linecap="round" stroke-linejoin="round"/>
</svg>
